<svg width="707" height="966" viewBox="0 0 707 966" fill="none" xmlns="http://www.w3.org/2000/svg">
<mask id="path-1-outside-1" maskUnits="userSpaceOnUse" x="0.601747" y="-0.68922" width="706.62" height="966.191" fill="black">
<rect fill="white" x="0.601747" y="-0.68922" width="706.62" height="966.191"/>
<path fill-rule="evenodd" clip-rule="evenodd" d="M320.983 66.3675L593.621 214.946C598.095 216.998 602.371 219.161 606.409 221.43C634.353 237.917 644.706 253.453 639.743 265.834L587.005 564.927C584.899 571.612 578.55 577.266 548.962 587.813C534.5 592.967 522.456 596.888 510.471 598.376C473.495 602.966 446.52 591.436 427.607 578.746L415.61 646.779C434.524 659.469 461.499 670.999 498.474 666.409C510.46 664.922 522.298 662.165 536.76 657.011C561.693 648.124 571.608 644.538 574.986 633.09L554.598 748.713C552.493 755.398 546.143 761.053 516.555 771.599C502.093 776.754 490.05 780.675 478.064 782.162C441.089 786.752 414.113 775.222 395.2 762.532L394.837 764.592L371.595 896.407L261.642 691.64L254.938 687.968L85.1242 595.876L169.448 117.653L193.428 130.821L490.266 295.076C508.027 305.951 542.978 313.834 572.867 305.626C582.012 303.114 603.025 296.486 603.025 296.486L442.939 208.806L422.242 197.582L422.298 197.562L308.76 135.688L320.983 66.3675ZM456.097 420.112C458.192 442.862 446.314 462.543 429.567 464.07C412.821 465.597 397.547 448.392 395.452 425.641C393.358 402.89 405.236 383.209 421.982 381.683C438.729 380.156 454.003 397.361 456.097 420.112Z"/>
</mask>
<path fill-rule="evenodd" clip-rule="evenodd" d="M320.983 66.3675L593.621 214.946C598.095 216.998 602.371 219.161 606.409 221.43C634.353 237.917 644.706 253.453 639.743 265.834L587.005 564.927C584.899 571.612 578.55 577.266 548.962 587.813C534.5 592.967 522.456 596.888 510.471 598.376C473.495 602.966 446.52 591.436 427.607 578.746L415.61 646.779C434.524 659.469 461.499 670.999 498.474 666.409C510.46 664.922 522.298 662.165 536.76 657.011C561.693 648.124 571.608 644.538 574.986 633.09L554.598 748.713C552.493 755.398 546.143 761.053 516.555 771.599C502.093 776.754 490.05 780.675 478.064 782.162C441.089 786.752 414.113 775.222 395.2 762.532L394.837 764.592L371.595 896.407L261.642 691.64L254.938 687.968L85.1242 595.876L169.448 117.653L193.428 130.821L490.266 295.076C508.027 305.951 542.978 313.834 572.867 305.626C582.012 303.114 603.025 296.486 603.025 296.486L442.939 208.806L422.242 197.582L422.298 197.562L308.76 135.688L320.983 66.3675ZM456.097 420.112C458.192 442.862 446.314 462.543 429.567 464.07C412.821 465.597 397.547 448.392 395.452 425.641C393.358 402.89 405.236 383.209 421.982 381.683C438.729 380.156 454.003 397.361 456.097 420.112Z" fill="url(#paint0_linear)"/>
<path d="M593.621 214.946L576.395 246.557C577.121 246.953 577.862 247.324 578.614 247.669L593.621 214.946ZM320.983 66.3675L338.21 34.7568C328.033 29.2112 315.81 28.9036 305.368 33.9303C294.926 38.957 287.542 48.7033 285.53 60.1162L320.983 66.3675ZM606.409 221.43L624.702 190.424C624.484 190.296 624.264 190.169 624.043 190.045L606.409 221.43ZM639.743 265.834L606.328 252.439C605.404 254.743 604.721 257.137 604.29 259.583L639.743 265.834ZM587.005 564.927L621.342 575.741C621.813 574.246 622.186 572.722 622.458 571.178L587.005 564.927ZM548.962 587.813L561.048 621.723L561.049 621.723L548.962 587.813ZM510.471 598.376L506.036 562.65L510.471 598.376ZM427.607 578.746L447.664 548.851C437.554 542.068 424.7 540.855 413.499 545.625C402.298 550.396 394.268 560.505 392.153 572.495L427.607 578.746ZM415.61 646.779L380.157 640.528C377.683 654.562 383.719 668.734 395.553 676.674L415.61 646.779ZM498.474 666.409L494.04 630.683L498.474 666.409ZM536.76 657.011L548.847 690.921L548.847 690.921L536.76 657.011ZM574.986 633.09L610.439 639.342C613.755 620.535 601.809 602.411 583.218 598.044C564.626 593.677 545.861 604.587 540.457 622.904L574.986 633.09ZM554.598 748.713L588.936 759.527C589.407 758.032 589.779 756.508 590.051 754.964L554.598 748.713ZM516.555 771.599L504.468 737.689L504.468 737.689L516.555 771.599ZM478.064 782.162L482.498 817.888L482.498 817.888L478.064 782.162ZM395.2 762.532L415.257 732.638C405.147 725.854 392.294 724.641 381.093 729.412C369.892 734.182 361.861 744.291 359.747 756.281L395.2 762.532ZM394.837 764.592L359.384 758.341L359.384 758.341L394.837 764.592ZM371.595 896.407L339.878 913.437C347.134 926.95 362.155 934.382 377.299 931.952C392.443 929.521 404.384 917.763 407.048 902.658L371.595 896.407ZM261.642 691.64L293.359 674.609C290.06 668.467 285.05 663.415 278.935 660.066L261.642 691.64ZM254.938 687.968L272.231 656.394C272.188 656.37 272.144 656.346 272.1 656.323L254.938 687.968ZM85.1242 595.876L49.6711 589.625C46.9818 604.877 54.3483 620.139 67.9622 627.522L85.1242 595.876ZM169.448 117.653L186.776 86.0975C176.6 80.5094 164.354 80.1717 153.885 85.1905C143.417 90.2092 136.011 99.9684 133.995 111.401L169.448 117.653ZM193.428 130.821L210.858 99.3218C210.824 99.303 210.79 99.2843 210.756 99.2656L193.428 130.821ZM490.266 295.076L509.064 264.374C508.614 264.098 508.158 263.832 507.696 263.577L490.266 295.076ZM572.867 305.626L582.401 340.34L582.401 340.34L572.867 305.626ZM603.025 296.486L613.854 330.818C627.608 326.48 637.445 314.352 638.853 300C640.26 285.647 632.967 271.839 620.318 264.911L603.025 296.486ZM442.939 208.806L460.233 177.232C460.189 177.208 460.145 177.184 460.101 177.16L442.939 208.806ZM422.242 197.582L410.513 163.546C397.015 168.197 387.542 180.385 386.365 194.614C385.188 208.842 392.53 222.421 405.08 229.228L422.242 197.582ZM422.298 197.562L434.027 231.598C447.512 226.951 456.982 214.781 458.173 200.567C459.363 186.353 452.049 172.777 439.525 165.952L422.298 197.562ZM308.76 135.688L273.307 129.437C270.622 144.662 277.958 159.901 291.533 167.299L308.76 135.688ZM429.567 464.07L426.299 428.219L426.299 428.219L429.567 464.07ZM456.097 420.112L420.249 423.412L420.249 423.412L456.097 420.112ZM421.982 381.683L418.714 345.831L418.714 345.831L421.982 381.683ZM610.848 183.335L338.21 34.7568L303.756 97.9783L576.395 246.557L610.848 183.335ZM624.043 190.045C619.071 187.251 613.912 184.646 608.629 182.223L578.614 247.669C582.279 249.349 585.671 251.071 588.774 252.815L624.043 190.045ZM673.158 279.229C681.735 257.834 674.57 237.772 664.509 223.967C654.919 210.811 640.62 199.816 624.702 190.424L588.115 252.435C593.862 255.826 598.145 258.843 601.23 261.381C604.366 263.962 605.819 265.684 606.324 266.376C606.836 267.079 605.865 266.016 605.293 263.23C604.645 260.07 604.834 256.166 606.328 252.439L673.158 279.229ZM622.458 571.178L675.196 272.085L604.29 259.583L551.552 558.675L622.458 571.178ZM561.049 621.723C576.264 616.3 588.538 611.131 597.758 605.203C608.609 598.227 617.192 588.919 621.342 575.741L552.667 554.113C553.387 551.828 554.686 549.198 556.604 546.882C558.253 544.89 559.46 544.229 558.821 544.64C558.142 545.077 556.313 546.131 552.533 547.803C548.818 549.446 543.759 551.449 536.875 553.902L561.049 621.723ZM514.905 634.102C531.248 632.073 546.652 626.854 561.048 621.723L536.875 553.902C522.348 559.08 513.665 561.703 506.036 562.65L514.905 634.102ZM407.549 608.641C431.739 624.871 467.284 640.013 514.905 634.102L506.036 562.65C479.706 565.918 461.301 558.001 447.664 548.851L407.549 608.641ZM451.064 653.031L463.06 584.998L392.153 572.495L380.157 640.528L451.064 653.031ZM494.04 630.683C467.71 633.952 449.305 626.034 435.668 616.885L395.553 676.674C419.743 692.904 455.288 708.046 502.909 702.135L494.04 630.683ZM524.673 623.1C512.458 627.454 503.184 629.548 494.04 630.683L502.909 702.135C517.736 700.295 532.139 696.876 548.847 690.921L524.673 623.1ZM540.457 622.904C540.906 621.382 541.941 619.094 543.807 616.926C545.463 615.001 546.743 614.384 546.097 614.753C545.31 615.203 543.49 616.103 539.604 617.63C535.765 619.14 531.062 620.823 524.673 623.1L548.847 690.921C559.957 686.961 572.352 682.676 581.815 677.269C593.951 670.335 604.624 659.856 609.515 643.277L540.457 622.904ZM590.051 754.964L610.439 639.342L539.533 626.839L519.145 742.462L590.051 754.964ZM528.642 805.509C543.857 800.086 556.131 794.917 565.351 788.989C576.202 782.013 584.785 772.705 588.936 759.527L520.261 737.899C520.981 735.614 522.279 732.985 524.197 730.668C525.846 728.676 527.053 728.016 526.414 728.426C525.735 728.863 523.907 729.917 520.127 731.589C516.412 733.232 511.352 735.235 504.468 737.689L528.642 805.509ZM482.498 817.888C498.841 815.86 514.245 810.641 528.642 805.509L504.468 737.689C489.941 742.867 481.258 745.49 473.63 746.436L482.498 817.888ZM375.143 792.427C399.332 808.657 434.878 823.799 482.498 817.888L473.63 746.436C447.3 749.705 428.894 741.787 415.257 732.638L375.143 792.427ZM359.747 756.281L359.384 758.341L430.29 770.843L430.653 768.784L359.747 756.281ZM359.384 758.341L336.141 890.155L407.048 902.658L430.29 770.843L359.384 758.341ZM403.311 879.376L293.359 674.609L229.925 708.671L339.878 913.437L403.311 879.376ZM237.645 719.543L244.348 723.214L278.935 660.066L272.231 656.394L237.645 719.543ZM67.9622 627.522L237.776 719.614L272.1 656.323L102.286 564.23L67.9622 627.522ZM133.995 111.401L49.6711 589.625L120.577 602.128L204.901 123.904L133.995 111.401ZM210.756 99.2656L186.776 86.0975L152.12 149.208L176.1 162.376L210.756 99.2656ZM507.696 263.577L210.858 99.3218L175.998 162.32L472.836 326.575L507.696 263.577ZM563.333 270.911C554.407 273.362 543.512 273.653 532.596 271.942C521.456 270.195 513.028 266.801 509.064 264.374L471.468 325.778C485.265 334.226 503.194 340.211 521.442 343.072C539.913 345.969 561.438 346.098 582.401 340.34L563.333 270.911ZM603.025 296.486C592.195 262.153 592.195 262.153 592.195 262.153C592.195 262.153 592.195 262.153 592.195 262.153C592.195 262.153 592.194 262.153 592.193 262.154C592.192 262.154 592.189 262.155 592.184 262.157C592.176 262.159 592.162 262.164 592.143 262.17C592.106 262.181 592.05 262.199 591.975 262.223C591.825 262.27 591.602 262.34 591.313 262.431C590.734 262.613 589.894 262.876 588.855 263.201C586.776 263.851 583.912 264.743 580.774 265.71C574.313 267.701 567.288 269.825 563.333 270.911L582.401 340.34C587.59 338.915 595.644 336.469 601.976 334.517C605.234 333.514 608.196 332.591 610.342 331.92C611.416 331.584 612.289 331.311 612.895 331.12C613.199 331.025 613.436 330.95 613.598 330.899C613.679 330.873 613.742 330.854 613.785 330.84C613.807 330.833 613.823 330.828 613.835 330.824C613.841 330.823 613.845 330.821 613.848 330.82C613.85 330.82 613.851 330.819 613.852 330.819C613.853 330.819 613.853 330.818 613.854 330.818C613.854 330.818 613.854 330.818 603.025 296.486ZM425.646 240.38L585.731 328.06L620.318 264.911L460.233 177.232L425.646 240.38ZM405.08 229.228L425.777 240.452L460.101 177.16L439.404 165.936L405.08 229.228ZM410.569 163.526L410.513 163.546L433.971 231.617L434.027 231.598L410.569 163.526ZM291.533 167.299L405.071 229.173L439.525 165.952L325.986 104.077L291.533 167.299ZM285.53 60.1162L273.307 129.437L344.213 141.939L356.436 72.6189L285.53 60.1162ZM432.836 499.921C455.321 497.871 471.562 483.826 480.72 468.651C489.886 453.464 493.624 435.037 491.946 416.811L420.249 423.412C420.666 427.937 419.512 430.726 419.076 431.448C418.901 431.739 419.184 431.138 420.369 430.305C421.657 429.4 423.713 428.454 426.299 428.219L432.836 499.921ZM359.604 428.941C361.282 447.168 368.321 464.599 380.093 477.859C391.85 491.103 410.36 501.97 432.836 499.921L426.299 428.219C428.884 427.983 431.069 428.541 432.488 429.192C433.792 429.791 434.17 430.322 433.937 430.06C433.362 429.412 431.717 426.865 431.301 422.34L359.604 428.941ZM418.714 345.831C396.228 347.881 379.988 361.927 370.83 377.101C361.664 392.289 357.926 410.715 359.604 428.941L431.301 422.34C430.884 417.816 432.038 415.027 432.473 414.305C432.649 414.014 432.365 414.614 431.181 415.447C429.893 416.352 427.837 417.298 425.251 417.534L418.714 345.831ZM491.946 416.811C490.268 398.585 483.229 381.154 471.456 367.893C459.699 354.649 441.19 343.782 418.714 345.831L425.251 417.534C422.666 417.77 420.48 417.211 419.062 416.56C417.757 415.961 417.379 415.43 417.612 415.693C418.188 416.341 419.833 418.888 420.249 423.412L491.946 416.811Z" fill="white" mask="url(#path-1-outside-1)"/>
<defs>
<linearGradient id="paint0_linear" x1="423.691" y1="84.4778" x2="289.276" y2="846.786" gradientUnits="userSpaceOnUse">
<stop stop-color="#00C2FF"/>
<stop offset="1" stop-color="#8C1AFF"/>
</linearGradient>
</defs>
</svg>
