<svg width="1440" height="750" viewBox="0 0 1440 750" fill="none" xmlns="http://www.w3.org/2000/svg">
<mask id="mask0" mask-type="alpha" maskUnits="userSpaceOnUse" x="0" y="0" width="1440" height="750">
<path d="M0 0H1440V750H0V0Z" fill="#C4C4C4"/>
</mask>
<g mask="url(#mask0)">
<g opacity="0.1">
<path fill-rule="evenodd" clip-rule="evenodd" d="M1999.76 345.554L1513.14 760.559C1505.9 767.653 1498.59 774.284 1491.25 780.38C1438.96 821.989 1401.45 830.462 1381.29 811.795L844.801 490.048C833.494 481.074 827.293 464.695 828.8 400.012C829.537 368.397 830.865 342.342 836.832 318.191C855.238 243.686 897.286 200.288 935.626 173.254L813.595 100.068C775.254 127.102 733.207 170.499 714.801 245.005C708.834 269.156 705.416 293.958 704.68 325.573C703.41 380.078 703.003 401.793 722.537 416.721L515.144 292.341C503.836 283.368 497.635 266.988 499.142 202.305C499.879 170.69 501.207 144.635 507.174 120.484C525.58 45.9789 567.628 2.5818 605.968 -24.4528L602.274 -26.6683L365.838 -168.467L840.709 -229.146L852.71 -239.337L1154.93 -498.155L2012.73 16.2901L1969.74 52.713L1435.14 502.726C1401.13 528.881 1360.23 590.305 1354 653.844C1352.1 673.285 1349.37 718.587 1349.37 718.587L1635.94 475.232L1672.78 443.687L1672.77 443.809L1875.42 270.983L1999.76 345.554ZM1219.79 344.903C1174.48 332.175 1145.37 294.83 1154.77 261.492C1164.17 228.154 1208.51 211.446 1253.82 224.174C1299.13 236.903 1328.23 274.247 1318.84 307.585C1309.44 340.923 1265.09 357.631 1219.79 344.903Z" fill="white"/>
</g>
<g opacity="0.1">
<path fill-rule="evenodd" clip-rule="evenodd" d="M521.883 -742.808L1083.46 -436.77C1092.67 -432.544 1101.48 -428.088 1109.8 -423.414C1167.36 -389.454 1188.68 -357.455 1178.46 -331.952L1069.83 284.113C1065.49 297.882 1052.41 309.529 991.469 331.252C961.68 341.87 936.873 349.946 912.185 353.01C836.025 362.464 780.461 338.715 741.504 312.577L716.795 452.71C755.752 478.848 811.315 502.597 887.476 493.143C912.164 490.079 936.548 484.402 966.336 473.784C1017.69 455.48 1038.12 448.095 1045.07 424.514L1003.08 662.671C998.742 676.44 985.663 688.088 924.718 709.811C894.93 720.428 870.123 728.505 845.435 731.569C769.275 741.022 713.711 717.274 674.754 691.136L674.006 695.378L626.132 966.887L399.654 545.114L385.846 537.551L36.0668 347.862L209.755 -637.172L259.141 -610.053L870.569 -271.72C907.153 -249.321 979.144 -233.082 1040.71 -249.99C1059.54 -255.164 1102.83 -268.816 1102.83 -268.816L773.086 -449.417L730.454 -472.537L730.57 -472.577L496.706 -600.024L521.883 -742.808ZM800.189 -14.1747C804.503 32.6866 780.037 73.2246 745.543 76.3697C711.048 79.5148 679.588 44.0758 675.273 -2.78542C670.959 -49.6466 695.425 -90.1847 729.919 -93.3298C764.414 -96.4748 795.875 -61.0358 800.189 -14.1747Z" fill="white"/>
</g>
</g>
</svg>
