<svg width="777" height="956" viewBox="0 0 777 956" fill="none" xmlns="http://www.w3.org/2000/svg">
<circle cx="355" cy="85" r="85" fill="#6FCF97"/>
<circle cx="692" cy="848" r="85" fill="#56CCF2"/>
<mask id="path-3-outside-1" maskUnits="userSpaceOnUse" x="-33.7668" y="22.3108" width="706.62" height="966.191" fill="black">
<rect fill="white" x="-33.7668" y="22.3108" width="706.62" height="966.191"/>
<path fill-rule="evenodd" clip-rule="evenodd" d="M286.614 89.3675L559.253 237.946C563.727 239.998 568.002 242.161 572.04 244.43C599.984 260.917 610.338 276.453 605.374 288.834L552.636 587.927C550.531 594.612 544.181 600.266 514.593 610.813C500.131 615.967 488.088 619.888 476.102 621.376C439.127 625.966 412.151 614.436 393.238 601.746L381.242 669.779C400.155 682.469 427.131 693.999 464.106 689.409C476.092 687.922 487.93 685.165 502.392 680.011C527.324 671.124 537.24 667.538 540.617 656.09L520.23 771.713C518.124 778.398 511.775 784.053 482.187 794.599C467.725 799.754 455.681 803.675 443.696 805.162C406.72 809.752 379.745 798.222 360.831 785.532L360.468 787.592L337.226 919.407L227.273 714.64L220.569 710.968L50.7556 618.876L135.079 140.653L159.059 153.821L455.897 318.076C473.659 328.951 508.61 336.834 538.498 328.626C547.643 326.114 568.656 319.486 568.656 319.486L408.571 231.806L387.873 220.582L387.93 220.562L274.391 158.688L286.614 89.3675ZM421.729 443.112C423.823 465.862 411.946 485.543 395.199 487.07C378.452 488.597 363.178 471.392 361.084 448.641C358.989 425.89 370.867 406.209 387.614 404.683C404.36 403.156 419.634 420.361 421.729 443.112Z"/>
</mask>
<path fill-rule="evenodd" clip-rule="evenodd" d="M286.614 89.3675L559.253 237.946C563.727 239.998 568.002 242.161 572.04 244.43C599.984 260.917 610.338 276.453 605.374 288.834L552.636 587.927C550.531 594.612 544.181 600.266 514.593 610.813C500.131 615.967 488.088 619.888 476.102 621.376C439.127 625.966 412.151 614.436 393.238 601.746L381.242 669.779C400.155 682.469 427.131 693.999 464.106 689.409C476.092 687.922 487.93 685.165 502.392 680.011C527.324 671.124 537.24 667.538 540.617 656.09L520.23 771.713C518.124 778.398 511.775 784.053 482.187 794.599C467.725 799.754 455.681 803.675 443.696 805.162C406.72 809.752 379.745 798.222 360.831 785.532L360.468 787.592L337.226 919.407L227.273 714.64L220.569 710.968L50.7556 618.876L135.079 140.653L159.059 153.821L455.897 318.076C473.659 328.951 508.61 336.834 538.498 328.626C547.643 326.114 568.656 319.486 568.656 319.486L408.571 231.806L387.873 220.582L387.93 220.562L274.391 158.688L286.614 89.3675ZM421.729 443.112C423.823 465.862 411.946 485.543 395.199 487.07C378.452 488.597 363.178 471.392 361.084 448.641C358.989 425.89 370.867 406.209 387.614 404.683C404.36 403.156 419.634 420.361 421.729 443.112Z" fill="url(#paint0_linear)"/>
<path d="M559.253 237.946L542.026 269.557C542.753 269.953 543.493 270.324 544.245 270.669L559.253 237.946ZM286.614 89.3675L303.841 57.7568C293.665 52.2112 281.441 51.9036 270.999 56.9303C260.557 61.957 253.174 71.7033 251.161 83.1162L286.614 89.3675ZM572.04 244.43L590.334 213.424C590.115 213.296 589.896 213.169 589.675 213.045L572.04 244.43ZM605.374 288.834L571.959 275.439C571.035 277.743 570.352 280.137 569.921 282.583L605.374 288.834ZM552.636 587.927L586.974 598.741C587.444 597.246 587.817 595.722 588.089 594.178L552.636 587.927ZM514.593 610.813L526.68 644.723L526.68 644.723L514.593 610.813ZM476.102 621.376L471.668 585.65L476.102 621.376ZM393.238 601.746L413.295 571.851C403.185 565.068 390.332 563.855 379.131 568.625C367.93 573.396 359.899 583.505 357.785 595.495L393.238 601.746ZM381.242 669.779L345.789 663.528C343.314 677.562 349.351 691.734 361.184 699.674L381.242 669.779ZM464.106 689.409L459.672 653.683L464.106 689.409ZM502.392 680.011L514.478 713.921L514.478 713.921L502.392 680.011ZM540.617 656.09L576.07 662.342C579.386 643.535 567.44 625.411 548.849 621.044C530.258 616.677 511.492 627.587 506.088 645.904L540.617 656.09ZM520.23 771.713L554.567 782.527C555.038 781.032 555.411 779.508 555.683 777.964L520.23 771.713ZM482.187 794.599L470.1 760.689L470.1 760.689L482.187 794.599ZM443.696 805.162L448.13 840.888L448.13 840.888L443.696 805.162ZM360.831 785.532L380.889 755.638C370.779 748.854 357.925 747.641 346.724 752.412C335.523 757.182 327.492 767.291 325.378 779.281L360.831 785.532ZM360.468 787.592L325.015 781.341L325.015 781.341L360.468 787.592ZM337.226 919.407L305.509 936.437C312.765 949.95 327.786 957.382 342.93 954.952C358.074 952.521 370.016 940.763 372.679 925.658L337.226 919.407ZM227.273 714.64L258.99 697.609C255.692 691.467 250.681 686.415 244.567 683.066L227.273 714.64ZM220.569 710.968L237.863 679.394C237.819 679.37 237.775 679.346 237.731 679.323L220.569 710.968ZM50.7556 618.876L15.3025 612.625C12.6132 627.877 19.9797 643.139 33.5936 650.522L50.7556 618.876ZM135.079 140.653L152.407 109.097C142.231 103.509 129.985 103.172 119.517 108.19C109.048 113.209 101.642 122.968 99.6262 134.401L135.079 140.653ZM159.059 153.821L176.489 122.322C176.455 122.303 176.421 122.284 176.387 122.266L159.059 153.821ZM455.897 318.076L474.696 287.374C474.246 287.098 473.789 286.832 473.327 286.577L455.897 318.076ZM538.498 328.626L548.032 363.34L548.032 363.34L538.498 328.626ZM568.656 319.486L579.486 353.818C593.239 349.48 603.077 337.352 604.484 323C605.892 308.647 598.598 294.839 585.95 287.911L568.656 319.486ZM408.571 231.806L425.864 200.232C425.821 200.208 425.777 200.184 425.733 200.16L408.571 231.806ZM387.873 220.582L376.145 186.546C362.647 191.197 353.173 203.385 351.996 217.614C350.819 231.842 358.161 245.421 370.712 252.228L387.873 220.582ZM387.93 220.562L399.658 254.598C413.143 249.951 422.613 237.781 423.804 223.567C424.994 209.353 417.681 195.777 405.156 188.952L387.93 220.562ZM274.391 158.688L238.938 152.437C236.253 167.662 243.589 182.901 257.164 190.299L274.391 158.688ZM395.199 487.07L391.93 451.219L391.93 451.219L395.199 487.07ZM421.729 443.112L385.88 446.412L385.881 446.412L421.729 443.112ZM387.614 404.683L384.345 368.831L384.345 368.831L387.614 404.683ZM576.48 206.335L303.841 57.7568L269.387 120.978L542.026 269.557L576.48 206.335ZM589.675 213.045C584.702 210.251 579.543 207.646 574.26 205.223L544.245 270.669C547.91 272.349 551.302 274.071 554.406 275.815L589.675 213.045ZM638.789 302.229C647.366 280.834 640.202 260.772 630.14 246.967C620.551 233.811 606.251 222.816 590.334 213.424L553.746 275.435C559.493 278.826 563.776 281.843 566.861 284.381C569.997 286.962 571.45 288.684 571.955 289.376C572.467 290.079 571.497 289.016 570.925 286.23C570.276 283.07 570.465 279.166 571.959 275.439L638.789 302.229ZM588.089 594.178L640.827 295.085L569.921 282.583L517.183 581.675L588.089 594.178ZM526.68 644.723C541.895 639.3 554.169 634.131 563.389 628.203C574.24 621.227 582.823 611.919 586.974 598.741L518.299 577.113C519.019 574.828 520.317 572.198 522.235 569.882C523.884 567.89 525.091 567.229 524.452 567.64C523.773 568.077 521.945 569.131 518.165 570.803C514.45 572.446 509.39 574.449 502.506 576.902L526.68 644.723ZM480.536 657.102C496.879 655.073 512.283 649.854 526.68 644.723L502.506 576.902C487.979 582.08 479.296 584.703 471.668 585.65L480.536 657.102ZM373.18 631.641C397.37 647.871 432.916 663.013 480.536 657.102L471.668 585.65C445.338 588.918 426.932 581.001 413.295 571.851L373.18 631.641ZM416.695 676.031L428.691 607.998L357.785 595.495L345.789 663.528L416.695 676.031ZM459.672 653.683C433.342 656.952 414.936 649.034 401.299 639.885L361.184 699.674C385.374 715.904 420.92 731.046 468.54 725.135L459.672 653.683ZM490.305 646.1C478.089 650.454 468.815 652.548 459.672 653.683L468.54 725.135C483.368 723.295 497.77 719.876 514.478 713.921L490.305 646.1ZM506.088 645.904C506.537 644.382 507.573 642.094 509.438 639.926C511.094 638.001 512.375 637.384 511.728 637.753C510.942 638.203 509.121 639.103 505.235 640.63C501.396 642.14 496.694 643.823 490.305 646.1L514.478 713.921C525.589 709.961 537.983 705.676 547.447 700.269C559.583 693.335 570.255 682.856 575.146 666.277L506.088 645.904ZM555.683 777.964L576.07 662.342L505.164 649.839L484.777 765.462L555.683 777.964ZM494.273 828.509C509.489 823.086 521.763 817.917 530.983 811.989C541.834 805.013 550.417 795.705 554.567 782.527L485.892 760.899C486.612 758.614 487.91 755.985 489.829 753.668C491.478 751.676 492.684 751.016 492.046 751.426C491.366 751.863 489.538 752.917 485.758 754.589C482.043 756.232 476.984 758.235 470.1 760.689L494.273 828.509ZM448.13 840.888C464.473 838.86 479.877 833.641 494.273 828.509L470.1 760.689C455.573 765.867 446.89 768.49 439.261 769.436L448.13 840.888ZM340.774 815.427C364.964 831.657 400.509 846.799 448.13 840.888L439.261 769.436C412.931 772.705 394.526 764.787 380.889 755.638L340.774 815.427ZM325.378 779.281L325.015 781.341L395.921 793.843L396.284 791.784L325.378 779.281ZM325.015 781.341L301.773 913.155L372.679 925.658L395.921 793.843L325.015 781.341ZM368.943 902.376L258.99 697.609L195.556 731.671L305.509 936.437L368.943 902.376ZM203.276 742.543L209.98 746.214L244.567 683.066L237.863 679.394L203.276 742.543ZM33.5936 650.522L203.408 742.614L237.731 679.323L67.9176 587.23L33.5936 650.522ZM99.6262 134.401L15.3025 612.625L86.2087 625.128L170.532 146.904L99.6262 134.401ZM176.387 122.266L152.407 109.097L117.751 172.208L141.731 185.376L176.387 122.266ZM473.327 286.577L176.489 122.322L141.629 185.32L438.467 349.575L473.327 286.577ZM528.964 293.911C520.039 296.362 509.144 296.653 498.227 294.942C487.087 293.195 478.66 289.801 474.696 287.374L437.099 348.778C450.897 357.226 468.825 363.211 487.073 366.072C505.545 368.969 527.069 369.098 548.032 363.34L528.964 293.911ZM568.656 319.486C557.826 285.153 557.827 285.153 557.827 285.153C557.827 285.153 557.827 285.153 557.827 285.153C557.826 285.153 557.826 285.153 557.825 285.154C557.823 285.154 557.82 285.155 557.816 285.157C557.807 285.159 557.793 285.164 557.775 285.17C557.738 285.181 557.681 285.199 557.606 285.223C557.457 285.27 557.233 285.34 556.944 285.431C556.366 285.613 555.525 285.876 554.487 286.201C552.407 286.851 549.544 287.743 546.405 288.71C539.945 290.701 532.92 292.825 528.964 293.911L548.032 363.34C553.222 361.915 561.276 359.469 567.608 357.517C570.866 356.514 573.827 355.591 575.973 354.92C577.048 354.584 577.92 354.311 578.527 354.12C578.83 354.025 579.067 353.95 579.229 353.899C579.311 353.873 579.373 353.854 579.416 353.84C579.438 353.833 579.455 353.828 579.466 353.824C579.472 353.823 579.477 353.821 579.48 353.82C579.481 353.82 579.483 353.819 579.484 353.819C579.484 353.819 579.485 353.818 579.485 353.818C579.485 353.818 579.486 353.818 568.656 319.486ZM391.277 263.38L551.363 351.06L585.95 287.911L425.864 200.232L391.277 263.38ZM370.712 252.228L391.409 263.452L425.733 200.16L405.035 188.936L370.712 252.228ZM376.201 186.526L376.145 186.546L399.602 254.617L399.658 254.598L376.201 186.526ZM257.164 190.299L370.703 252.173L405.156 188.952L291.618 127.077L257.164 190.299ZM251.161 83.1162L238.938 152.437L309.844 164.939L322.067 95.6189L251.161 83.1162ZM398.467 522.921C420.953 520.871 437.193 506.826 446.351 491.651C455.517 476.464 459.255 458.037 457.577 439.811L385.881 446.412C386.297 450.937 385.143 453.726 384.708 454.448C384.532 454.739 384.816 454.138 386 453.305C387.288 452.4 389.344 451.454 391.93 451.219L398.467 522.921ZM325.235 451.941C326.913 470.168 333.952 487.599 345.725 500.859C357.482 514.103 375.991 524.97 398.468 522.921L391.93 451.219C394.515 450.983 396.701 451.541 398.119 452.192C399.424 452.791 399.802 453.322 399.569 453.06C398.994 452.412 397.349 449.865 396.932 445.34L325.235 451.941ZM384.345 368.831C361.86 370.881 345.62 384.927 336.462 400.101C327.295 415.289 323.557 433.715 325.235 451.941L396.932 445.34C396.515 440.816 397.669 438.027 398.105 437.305C398.28 437.014 397.997 437.614 396.812 438.447C395.524 439.352 393.468 440.298 390.883 440.534L384.345 368.831ZM457.577 439.811C455.899 421.585 448.86 404.154 437.088 390.893C425.331 377.649 406.821 366.782 384.345 368.831L390.882 440.534C388.297 440.77 386.112 440.211 384.693 439.56C383.389 438.961 383.011 438.43 383.244 438.693C383.819 439.341 385.464 441.888 385.88 446.412L457.577 439.811Z" fill="white" mask="url(#path-3-outside-1)"/>
<ellipse cx="58.5" cy="779" rx="58.5" ry="56" fill="#9B51E0"/>
<ellipse cx="112" cy="869" rx="25" ry="26" fill="#9B51E0"/>
<defs>
<linearGradient id="paint0_linear" x1="389.323" y1="107.478" x2="254.907" y2="869.786" gradientUnits="userSpaceOnUse">
<stop stop-color="#00C2FF"/>
<stop offset="1" stop-color="#8C1AFF"/>
</linearGradient>
</defs>
</svg>
